<?xml version="1.0" encoding="UTF-8"?>
<svg width="800" height="600" xmlns="http://www.w3.org/2000/svg">
    <!-- スタイル定義 -->
    <defs>
        <style type="text/css">
            .box { fill: #ffffff; stroke: #2c5282; stroke-width: 2; filter: drop-shadow(2px 2px 4px rgba(0,0,0,0.1)); }
            .text { font-family: Arial, sans-serif; font-size: 14px; fill: #2d3748; }
            .arrow { stroke: #3182ce; stroke-width: 2; fill: none; marker-end: url(#arrowhead); }
            .label { font-family: Arial, sans-serif; font-size: 12px; fill: #4a5568; }
        </style>
        <marker id="arrowhead" markerWidth="10" markerHeight="7" refX="9" refY="3.5" orient="auto">
            <polygon points="0 0, 10 3.5, 0 7" fill="#3182ce"/>
        </marker>
    </defs>

    <!-- 背景 -->
    <rect width="100%" height="100%" fill="#f0f9ff"/>
    <rect width="100%" height="100%" fill="url(#grid)" opacity="0.1"/>

    <!-- グリッドパターン -->
    <defs>
        <pattern id="grid" width="20" height="20" patternUnits="userSpaceOnUse">
            <path d="M 20 0 L 0 0 0 20" fill="none" stroke="#4299e1" stroke-width="0.5"/>
        </pattern>
    </defs>

    <!-- コンポーネント -->
    <!-- 上段: プロバイダーとCognito -->
    <rect x="50" y="150" width="200" height="80" class="box"/>
    <text x="150" y="195" class="text" text-anchor="middle">SMS</text>
    <text x="150" y="215" class="text" text-anchor="middle">MFAプロバイダー</text>

    <rect x="300" y="150" width="200" height="80" class="box"/>
    <text x="400" y="195" class="text" text-anchor="middle">Cognito</text>
    <text x="400" y="215" class="text" text-anchor="middle">ユーザープール</text>

    <rect x="550" y="150" width="200" height="80" class="box"/>
    <text x="650" y="195" class="text" text-anchor="middle">Cognito</text>
    <text x="650" y="215" class="text" text-anchor="middle">IDプール</text>

    <!-- 中段: Webアプリ -->
    <rect x="50" y="350" width="150" height="80" class="box"/>
    <text x="125" y="395" class="text" text-anchor="middle">Webアプリ</text>

    <!-- 下段: IDプールとDynamoDB -->
    <rect x="600" y="350" width="150" height="80" class="box"/>
    <text x="675" y="395" class="text" text-anchor="middle">DynamoDB</text>

    <!-- 接続線と説明: 認証フロー -->
    <!-- Webアプリ⇔Cognito認証フロー -->
    <path d="M400 230 L400 290 L125 290 L125 350" class="arrow"/>
    <path d="M125 350 L125 290 L400 290 L400 230" class="arrow"/>
    <text x="150" y="115" class="label">1. 認証フロー</text>
    <text x="150" y="130" class="label">- ユーザー名/パスワード認証</text>
    <text x="150" y="145" class="label">- MFAコード検証</text>

    <!-- MFAプロバイダーフロー -->
    <path d="M250 190 L300 190" class="arrow"/>
    <path d="M300 190 L250 190" class="arrow"/>
    <text x="400" y="115" class="label">2. MFAコード送信</text>

    <!-- 認証情報取得フロー -->
    <path d="M650 230 L650 290 L125 290 L125 350" class="arrow"/>
    <path d="M125 350 L125 290 L650 290 L650 230" class="arrow"/>
    <text x="650" y="115" class="label">3. AWS認証情報取得</text>

    <!-- DynamoDBアクセスフロー -->
    <path d="M200 390 L600 390" class="arrow" style="stroke-dasharray: 5,5"/>
    <text x="625" y="310" class="label">4. 一時的な認証情報を使用して</text>
    <text x="625" y="325" class="label">直接DynamoDBにアクセス</text>
</svg> 