<?xml version="1.0" encoding="UTF-8"?>
<svg width="800" height="600" xmlns="http://www.w3.org/2000/svg">
    <!-- 背景とグリッド -->
    <rect width="800" height="600" fill="#f0f9ff"/>
    <pattern id="grid" width="20" height="20" patternUnits="userSpaceOnUse">
        <path d="M 20 0 L 0 0 0 20" fill="none" stroke="black" stroke-width="0.5" opacity="0.1"/>
    </pattern>
    <rect width="800" height="600" fill="url(#grid)"/>

    <!-- オンプレミス環境 -->
    <rect x="250" y="50" width="500" height="80" fill="#ffffff" stroke="#2c5282" stroke-width="2" rx="10"/>
    <text x="270" y="80" font-family="Arial" font-size="14" fill="#2c5282">On-premises</text>

    <!-- オンプレミスAD -->
    <rect x="440" y="60" width="120" height="60" fill="#ffffff" stroke="#2c5282" stroke-width="2" rx="5"/>
    <text x="500" y="95" font-family="Arial" font-size="12" text-anchor="middle">Active Directory</text>

    <!-- エンドユーザー -->
    <rect x="50" y="250" width="100" height="60" fill="#ffffff" stroke="#2c5282" stroke-width="2" rx="5"/>
    <text x="100" y="285" font-family="Arial" font-size="12" text-anchor="middle">End User</text>

    <!-- AWS クラウド -->
    <rect x="250" y="170" width="500" height="380" fill="#ffffff" stroke="#2c5282" stroke-width="2" rx="10"/>
    <text x="270" y="200" font-family="Arial" font-size="14" fill="#2c5282">AWS Cloud</text>

    <!-- Directory Service コンテナ -->
    <rect x="280" y="220" width="440" height="160" fill="#f8fafc" stroke="#2c5282" stroke-width="2" stroke-dasharray="5,5" rx="5"/>
    <text x="500" y="240" font-family="Arial" font-size="14" fill="#2c5282" text-anchor="middle">AWS Directory Service</text>

    <!-- 認証オプション -->
    <rect x="300" y="260" width="120" height="80" fill="#ffffff" stroke="#2c5282" stroke-width="2" rx="5"/>
    <text x="360" y="295" font-family="Arial" font-size="12" text-anchor="middle">AWS Managed</text>
    <text x="360" y="315" font-family="Arial" font-size="12" text-anchor="middle">Microsoft AD</text>

    <rect x="440" y="260" width="120" height="80" fill="#ffffff" stroke="#2c5282" stroke-width="2" rx="5"/>
    <text x="500" y="305" font-family="Arial" font-size="12" text-anchor="middle">AD Connector</text>

    <rect x="580" y="260" width="120" height="80" fill="#ffffff" stroke="#2c5282" stroke-width="2" rx="5"/>
    <text x="640" y="305" font-family="Arial" font-size="12" text-anchor="middle">Simple AD</text>

    <!-- AWS リソース -->
    <rect x="300" y="420" width="400" height="100" fill="#ffffff" stroke="#2c5282" stroke-width="2" rx="5"/>
    <text x="500" y="460" font-family="Arial" font-size="12" text-anchor="middle">AWS Resources</text>
    <text x="500" y="480" font-family="Arial" font-size="10" text-anchor="middle">(EC2, RDS, WorkSpaces, FSx, etc.)</text>

    <!-- 接続線 -->
    <!-- エンドユーザーからDirectory Serviceへ -->
    <path d="M 150 280 L 280 280" fill="none" stroke="#3182ce" stroke-width="2" marker-end="url(#arrowhead)"/>

    <!-- Directory ServiceからAWSリソースへ -->
    <path d="M 500 380 L 500 420" fill="none" stroke="#3182ce" stroke-width="2" marker-end="url(#arrowhead)"/>

    <!-- AD ConnectorとオンプレミスADの接続（一方通行） -->
    <path d="M 500 260 L 500 120" fill="none" stroke="#3182ce" stroke-width="2" stroke-dasharray="5,5" marker-end="url(#arrowhead)"/>

    <!-- Managed ADとオンプレミスADの信頼関係（双方向） -->
    <path d="M 360 260 Q 430 170 500 120" fill="none" stroke="#3182ce" stroke-width="2" stroke-dasharray="5,5" marker-end="url(#arrowhead)"/>
    <path d="M 500 120 Q 430 170 360 260" fill="none" stroke="#3182ce" stroke-width="2" stroke-dasharray="5,5" marker-end="url(#arrowhead)"/>

    <!-- 矢印マーカー -->
    <defs>
        <marker id="arrowhead" markerWidth="10" markerHeight="7" refX="9" refY="3.5" orient="auto">
            <polygon points="0 0, 10 3.5, 0 7" fill="#3182ce"/>
        </marker>
    </defs>

    <!-- 説明テキスト -->
    <text x="400" y="30" font-family="Arial" font-size="16" fill="#2c5282" text-anchor="middle" font-weight="bold">AWS Directory Service Authentication Flow</text>
    
    <!-- 凡例 -->
    <rect x="50" y="500" width="150" height="100" fill="#ffffff" stroke="#2c5282" stroke-width="1"/>
    <text x="60" y="520" font-family="Arial" font-size="12" fill="#4a5568">Legend:</text>
    <line x1="60" y1="535" x2="100" y2="535" stroke="#3182ce" stroke-width="2"/>
    <text x="110" y="540" font-family="Arial" font-size="10" fill="#4a5568">Authentication Flow</text>
    <line x1="60" y1="555" x2="100" y2="555" stroke="#3182ce" stroke-width="2" stroke-dasharray="5,5"/>
    <text x="110" y="560" font-family="Arial" font-size="10" fill="#4a5568">Directory Connection</text>
    <path d="M 60 575 Q 80 565 100 575" fill="none" stroke="#3182ce" stroke-width="2" stroke-dasharray="5,5" marker-end="url(#arrowhead)"/>
    <text x="110" y="580" font-family="Arial" font-size="10" fill="#4a5568">Trust Relationship</text>
</svg> 